<svg width="31" height="56" fill="none" xmlns="http://www.w3.org/2000/svg"><path d="M2.323 8.423L.657 16.34l.077 1.82c.139 3.28 1.25 5.71 3.75 8.194 1.558 1.54 4.474 3.227 7.128 4.117l1.543.518.277.996c.263.904.294 1.753.34 8.646l.046 7.65-1.388.093c-5.447.346-9.582 1.873-9.582 3.533 0 2.178 6.187 3.759 13.886 3.546 6.712-.186 11.418-1.646 11.418-3.546 0-1.66-4.135-3.187-9.582-3.533l-1.388-.092.046-7.65c.046-6.92.077-7.743.34-8.66l.277-1.01.803-.238c6.017-1.833 10.214-5.711 11.371-10.492.571-2.378.494-3.095-1.357-11.847L26.994.508H4.005L2.323 8.423z" fill="#780000"/></svg>