<svg width="718" height="650" fill="none" xmlns="http://www.w3.org/2000/svg"><path d="M625.667 419.45c43.606-50.06 66.666-94.45 66.666-94.45S571.12 91.667 359 91.667c-11.373 0-22.487.67-33.333 1.94a288.408 288.408 0 00-33.334 5.91M359 225c11.687 0 22.907 2.005 33.333 5.69 28.414 10.043 50.934 32.563 60.977 60.977C456.993 302.093 459 313.313 459 325M59 25l600 600M359 425c-11.687 0-22.907-2.007-33.333-5.69-28.414-10.043-50.934-32.563-60.977-60.977a99.308 99.308 0 01-4.308-16.666M97.234 225a575.624 575.624 0 00-27.613 33.333C40.762 295.94 25.667 325 25.667 325S146.879 558.333 359 558.333c11.373 0 22.487-.67 33.333-1.94" stroke="#780000" stroke-width="50" stroke-linecap="round" stroke-linejoin="round"/></svg>