<svg width="116" height="79" fill="none" xmlns="http://www.w3.org/2000/svg"><path d="M20.482 45.065l-1.985-7.495h1.575l.935 4.405.325 2.205h-.185l.36-2.205 1.135-4.405h1.35l1.165 4.405.41 2.215h-.21l.32-2.215.89-4.405h1.53l-1.945 7.495h-1.54l-1.12-4.255-.44-2.705h.43l-.405 2.705-1.12 4.255h-1.475zM29.047 45v-7.43h1.58V45h-1.58zm3.366 0v-7.43h1.45l2.785 4.395.97 1.935h-.345l-.225-2.495V37.57h1.43V45h-1.55l-2.66-4.26-1.115-2.2h.42l.26 2.705V45h-1.42zm7.735 0v-7.43h4.534v1.18h-2.974v1.865h2.255v1.155h-2.255v2.025h3.29V45h-4.85zm11.716-1.275a.476.476 0 00.09-.075c.04-.04.077-.078.11-.115l.065-.065c.144-.077.264-.182.36-.315.097-.133.169-.282.215-.445a1.75 1.75 0 00.075-.505c0-.227-.016-.412-.05-.555a8.418 8.418 0 00-.07-.32h1.25c.017.07.037.177.06.32.027.14.04.327.04.56 0 .507-.093.925-.28 1.255-.186.327-.433.59-.74.79a.51.51 0 00-.07.08c-.03.04-.063.08-.1.12a.337.337 0 01-.07.065c-.233.14-.525.268-.875.385-.35.117-.711.175-1.085.175-.68 0-1.256-.078-1.73-.235-.473-.16-.833-.392-1.08-.695-.243-.307-.365-.68-.365-1.12 0-.36.089-.672.265-.935.18-.267.422-.493.725-.68a5.178 5.178 0 011.015-.475l.1-.025.175-.04.105-.03c.274-.103.512-.227.715-.37.207-.143.365-.317.475-.52.114-.203.17-.443.17-.72a.896.896 0 00-.075-.345.732.732 0 00-.25-.315c-.113-.087-.265-.13-.455-.13a.84.84 0 00-.59.215c-.153.143-.23.345-.23.605 0 .16.019.302.055.425.04.12.1.242.18.365.08.123.182.265.305.425.124.157.27.352.44.585l.16.205c.087.12.204.278.35.475.15.197.314.405.49.625.18.217.357.425.53.625.174.197.327.358.46.485.18.157.347.285.5.385.157.097.32.17.49.22.174.05.377.08.61.09V45a2.691 2.691 0 01-.685.08c-.426 0-.79-.077-1.09-.23-.3-.157-.58-.348-.84-.575-.166-.167-.35-.362-.55-.585a47.482 47.482 0 01-.6-.695 34.863 34.863 0 01-1.02-1.305l-.145-.165a18.293 18.293 0 01-.46-.65 3.665 3.665 0 01-.38-.725c-.1-.26-.15-.542-.15-.845 0-.583.195-1.038.585-1.365.394-.327.919-.49 1.575-.49.42 0 .784.08 1.09.24.307.16.544.375.71.645.167.267.25.563.25.89 0 .337-.051.63-.155.88-.1.247-.24.46-.42.64-.176.18-.383.338-.62.475-.236.137-.49.265-.76.385a2.3 2.3 0 00-.14.04 8.612 8.612 0 00-.375.105 3.22 3.22 0 00-.595.325c-.166.12-.296.253-.39.4a.918.918 0 00-.135.49c0 .197.052.375.155.535.107.16.277.288.51.385.234.093.545.14.935.14.287 0 .522-.028.705-.085a3.33 3.33 0 00.53-.215zm4.93-2.42c0-.623.095-1.172.285-1.645a3.313 3.313 0 011.954-1.925 4.076 4.076 0 011.42-.245 5.58 5.58 0 011.505.185c.167.043.316.078.446.105l-.21 1.36a3.227 3.227 0 00-.29-.155 2.181 2.181 0 00-.52-.175 3.485 3.485 0 00-.816-.08 2.13 2.13 0 00-1.124.295c-.327.197-.584.48-.77.85-.187.37-.28.817-.28 1.34 0 .523.084.983.255 1.38.173.397.426.708.76.935.333.223.74.335 1.22.335.223 0 .45-.025.68-.075a4.1 4.1 0 00.614-.18c.18-.073.314-.145.4-.215v1.295c-.133.053-.286.11-.46.17a4.138 4.138 0 01-1.38.22c-.773 0-1.434-.155-1.984-.465a3.157 3.157 0 01-1.266-1.32c-.293-.567-.44-1.23-.44-1.99zM63.614 45v-7.43h1.57v3.105H68.1V37.57h1.56V45H68.1v-3.175h-2.915V45h-1.57zm7.715 0v-7.43h4.535v1.18H72.89v1.865h2.255v1.155H72.89v2.025h3.29V45h-4.85zm6.055 0v-7.43h4.535v1.18h-2.975v1.865h2.255v1.155h-2.255v2.025h3.29V45h-4.85zm8.06.08a6.06 6.06 0 01-.975-.075 5.818 5.818 0 01-.795-.18 2.353 2.353 0 01-.476-.19l.236-1.24c.123.073.285.147.484.22.204.07.427.13.67.18.244.047.489.07.736.07.396 0 .691-.062.885-.185.193-.123.29-.322.29-.595a.74.74 0 00-.16-.485c-.107-.133-.275-.263-.505-.39a15.942 15.942 0 00-.886-.45 5.206 5.206 0 01-.874-.535 2.556 2.556 0 01-.665-.74 1.933 1.933 0 01-.256-1.005c0-.347.067-.645.2-.895.137-.253.324-.46.56-.62.237-.163.51-.283.82-.36a4.216 4.216 0 011.005-.115c.514 0 .936.048 1.266.145.33.097.56.187.69.27l-.266 1.19a2.373 2.373 0 00-.65-.305 2.968 2.968 0 00-.95-.14 2.03 2.03 0 00-.62.085.895.895 0 00-.404.25.566.566 0 00-.145.395c0 .187.044.347.134.48.094.13.24.257.44.38.2.12.46.258.78.415.29.137.559.28.805.43.247.147.464.308.65.485.187.177.332.378.435.605.104.227.155.487.155.78 0 .447-.105.83-.315 1.15-.21.317-.511.558-.904.725-.39.167-.855.25-1.395.25zm3.844-.08v-7.43h4.535v1.18h-2.975v1.865h2.255v1.155h-2.255v2.025h3.29V45h-4.85z" fill="#780000"/></svg>