<svg width="21" height="20" viewBox="0 0 21 20" fill="none" xmlns="http://www.w3.org/2000/svg">
<path d="M9.02 16.472C4.477 16.472 0.779999 12.777 0.779999 8.236C0.779999 3.695 4.476 0 9.02 0C13.565 0 17.262 3.695 17.262 8.236C17.262 12.777 13.565 16.472 9.02 16.472ZM9.02 1.562C5.338 1.562 2.341 4.556 2.341 8.236C2.341 11.916 5.338 14.911 9.021 14.911C12.704 14.911 15.701 11.916 15.701 8.236C15.701 4.556 12.704 1.561 9.021 1.561L9.02 1.562ZM20.55 19.772C20.6227 19.6995 20.6804 19.6134 20.7198 19.5186C20.7591 19.4238 20.7794 19.3222 20.7794 19.2195C20.7794 19.1168 20.7591 19.0152 20.7198 18.9204C20.6804 18.8256 20.6227 18.7395 20.55 18.667L17.054 15.174C16.9053 15.0395 16.7105 14.9672 16.51 14.9722C16.3095 14.9772 16.1186 15.059 15.9767 15.2008C15.8349 15.3425 15.7529 15.5334 15.7477 15.7338C15.7425 15.9343 15.8146 16.1291 15.949 16.278L19.445 19.771C19.5174 19.8438 19.6035 19.9016 19.6983 19.9411C19.7931 19.9805 19.8948 20.0008 19.9975 20.0008C20.1002 20.0008 20.2019 19.9805 20.2967 19.9411C20.3915 19.9016 20.4776 19.8448 20.55 19.772Z" fill="#FFFFFC"/>
</svg>
