<?xml version="1.0" encoding="utf-8"?><svg viewBox="0 0 800 800" xmlns="http://www.w3.org/2000/svg" xmlns:xlink="http://www.w3.org/1999/xlink"><style>:root>svg{display:none}:root>svg:target{display:block}</style><svg viewBox="0 0 20 32" id="arrow" xmlns="http://www.w3.org/2000/svg"><path d="M18.964 14.985 2.951.392a1.35 1.35 0 0 0-1.903 0 1.335 1.335 0 0 0 0 1.894L16.095 16 1.05 29.714a1.335 1.335 0 0 0 0 1.894 1.35 1.35 0 0 0 1.903 0l16.013-14.593c.28-.279.4-.648.382-1.014a1.33 1.33 0 0 0-.383-1.016Z"/></svg><svg viewBox="0 0 32 32" id="close" xmlns="http://www.w3.org/2000/svg"><path d="M16 0C7.164 0 0 7.163 0 16s7.163 16 16 16 16-7.163 16-16S24.837 0 16 0zm0 30.032C8.28 30.032 2 23.72 2 16S8.28 2 16 2s14 6.28 14 14-6.28 14.032-14 14.032zm5.657-19.688a1 1 0 0 0-1.414 0l-4.242 4.242-4.242-4.242a1 1 0 1 0-1.415 1.414L14.586 16l-4.242 4.242a1 1 0 0 0 1.415 1.414l4.242-4.242 4.242 4.242a1 1 0 0 0 1.414-1.414L17.415 16l4.242-4.242a.999.999 0 0 0 0-1.414z"/></svg><svg viewBox="0 0 31 56" id="glass" xmlns="http://www.w3.org/2000/svg"><path d="M2.323 8.423.657 16.34l.077 1.82c.139 3.28 1.25 5.71 3.75 8.194 1.558 1.54 4.474 3.227 7.128 4.117l1.543.518.277.996c.263.904.294 1.753.34 8.646l.046 7.65-1.388.093c-5.447.346-9.582 1.873-9.582 3.533 0 2.178 6.187 3.759 13.886 3.546 6.712-.186 11.418-1.646 11.418-3.546 0-1.66-4.135-3.187-9.582-3.533l-1.388-.092.046-7.65c.046-6.92.077-7.743.34-8.66l.277-1.01.803-.238c6.017-1.833 10.214-5.711 11.371-10.492.571-2.378.494-3.095-1.357-11.847L26.994.508H4.005L2.323 8.423Z"/></svg><svg viewBox="0 0 21 20" id="search" xmlns="http://www.w3.org/2000/svg"><path d="M9.02 16.472C4.477 16.472.78 12.777.78 8.236S4.476 0 9.02 0c4.545 0 8.242 3.695 8.242 8.236s-3.697 8.236-8.242 8.236Zm0-14.91c-3.682 0-6.679 2.994-6.679 6.674s2.997 6.675 6.68 6.675 6.68-2.995 6.68-6.675c0-3.68-2.997-6.675-6.68-6.675Zm11.53 18.21a.78.78 0 0 0 0-1.105l-3.496-3.493a.782.782 0 0 0-1.105 1.104l3.496 3.493a.779.779 0 0 0 1.105 0Z"/></svg><svg viewBox="0 0 33 32" id="telegram" xmlns="http://www.w3.org/2000/svg"><g clip-path="url(#ea)"><path d="m13.328 20.241-.526 7.446c.753 0 1.078-.326 1.469-.716l3.526-3.393 7.306 5.387c1.34.753 2.284.357 2.646-1.24l4.796-22.63.001-.002c.425-1.994-.716-2.774-2.022-2.285L2.334 13.676c-1.924.752-1.895 1.832-.327 2.322l7.207 2.257 16.74-10.548c.788-.526 1.505-.235.916.29L13.328 20.241Z"/></g><defs><clipPath id="ea"><path transform="translate(.86)" d="M0 0h31.778v32H0z"/></clipPath></defs></svg><svg viewBox="0 0 25 32" id="user" xmlns="http://www.w3.org/2000/svg"><path d="M22.678 19.943a12.5 12.5 0 0 0-4.085-3.779 9.242 9.242 0 0 0 3.093-6.902C21.686 4.155 17.531 0 12.424 0S3.162 4.155 3.162 9.262a9.242 9.242 0 0 0 3.092 6.902 12.5 12.5 0 0 0-4.085 3.779A12.322 12.322 0 0 0 0 26.936V32h24.848v-5.064c0-2.505-.75-4.923-2.17-6.993ZM5.101 9.263c0-4.039 3.285-7.324 7.323-7.324s7.323 3.285 7.323 7.323-3.285 7.323-7.323 7.323S5.1 13.3 5.1 9.262ZM1.939 30.06v-3.125c0-4.109 2.38-7.794 6.101-9.516a9.205 9.205 0 0 0 4.384 1.104c1.585 0 3.078-.4 4.383-1.104 3.721 1.722 6.101 5.407 6.101 9.516v3.125H1.94Z"/></svg></svg>