<svg width="33" height="32" viewBox="0 0 33 32" fill="none" xmlns="http://www.w3.org/2000/svg">
<mask id="mask0_1_9" style="mask-type:luminance" maskUnits="userSpaceOnUse" x="0" y="0" width="33" height="32">
<path d="M0.860001 0H32.638V32H0.860001V0Z" fill="white"/>
</mask>
<g mask="url(#mask0_1_9)">
<path d="M13.328 20.241L12.802 27.687C13.555 27.687 13.88 27.361 14.271 26.971L17.797 23.578L25.103 28.965C26.443 29.718 27.387 29.322 27.749 27.725L32.545 5.095L32.546 5.093C32.971 3.099 31.83 2.319 30.524 2.808L2.334 13.676C0.41 14.428 0.439 15.508 2.007 15.998L9.214 18.255L25.954 7.707C26.742 7.18099 27.459 7.472 26.87 7.997L13.328 20.241Z" fill="white"/>
</g>
</svg>
