<svg width="25" height="32" viewBox="0 0 25 32" fill="none" xmlns="http://www.w3.org/2000/svg">
<path d="M22.678 19.943C21.6176 18.3924 20.2213 17.1007 18.593 16.164C19.5661 15.2967 20.3448 14.2334 20.8779 13.0439C21.4109 11.8544 21.6863 10.5655 21.686 9.262C21.686 4.155 17.531 0 12.424 0C7.317 0 3.162 4.155 3.162 9.262C3.16154 10.5654 3.43679 11.8542 3.96968 13.0438C4.50257 14.2333 5.28105 15.2966 6.254 16.164C4.62568 17.1007 3.22941 18.3924 2.169 19.943C0.754176 22.0004 -0.00222339 24.4391 4.90916e-06 26.936V32H24.848V26.936C24.848 24.431 24.098 22.013 22.678 19.943ZM5.101 9.263C5.101 5.224 8.386 1.939 12.424 1.939C16.462 1.939 19.747 5.224 19.747 9.262C19.747 13.3 16.462 16.585 12.424 16.585C8.386 16.585 5.1 13.3 5.1 9.262L5.101 9.263ZM1.939 30.06V26.935C1.939 22.826 4.319 19.141 8.04 17.419C9.38684 18.1457 10.8936 18.5252 12.424 18.523C14.009 18.523 15.502 18.123 16.807 17.419C20.528 19.141 22.908 22.826 22.908 26.935V30.06H1.94H1.939Z" fill="#FFFFFC"/>
</svg>
